# .PCD v0.7
VERSION 0.7
FIELDS x y z
SIZE 4 4 4
TYPE F F F
COUNT 1 1 1
WIDTH 2294
HEIGHT 1
POINTS 2294
DATA ascii
-20.6509 199.0135 128.6858
-17.0592 199.1169 126.0286
-20.2112 199.1089 123.8344
-7.0413 199.5120 127.5366
-7.8469 199.3905 123.9678
-41.4365 198.3466 124.7218
12.2425 200.0389 124.2977
26.1824 200.5526 131.2412
-47.5291 198.2434 117.1626
-37.9888 198.5178 120.9794
19.0261 200.3665 126.4550
-46.0672 197.9119 113.2145
-130.6874 192.4904 -69.4988
-131.7798 192.6062 -80.3925
-123.9380 192.7122 -75.9930
-126.3121 192.6618 -81.3871
-116.7054 193.4378 -63.1860
-130.5526 192.6589 -91.1935
-112.6370 193.4855 -69.7333
-116.9374 193.7473 -50.4727
-130.3902 193.1506 -44.5637
-119.7125 192.9525 -86.7756
-108.1736 193.5407 -75.9421
-105.2522 193.7609 -67.2925
-106.3398 193.6130 -78.0514
-127.7989 192.4153 -100.2441
-103.0012 194.2033 -56.6782
-118.7336 192.5354 -92.8844
-108.2159 194.2069 -46.0906
-104.7167 193.5818 -85.0894
-99.4546 194.1678 -56.1632
-116.5718 192.5589 -96.0433
-96.7240 194.0739 -62.3889
-120.3779 192.5032 -103.5086
-107.9137 194.1304 -39.0400
-117.1619 192.6533 -98.8957
-120.7518 193.8601 -33.3105
-126.7891 192.5180 -111.7627
-122.7358 193.6298 -31.2032
-117.5002 192.5831 -102.6322
-112.0634 192.8919 -98.1997
-131.4366 192.9538 -114.2769
-88.8221 194.4160 -51.1512
-122.5668 192.3292 -115.6779
-85.3741 194.5301 -57.8415
-118.8513 192.5075 -111.3786
-93.6371 193.4205 -97.4968
-82.4517 194.2174 -80.1139
-108.9904 192.7398 -101.4812
-109.2069 192.6759 -102.7263
-86.8453 193.8035 -95.4947
-117.1809 192.2807 -118.3669
-85.2993 193.7406 -98.6388
-79.7565 193.9816 -88.0622
-88.8601 193.5336 -100.3464
-125.6134 192.5132 -124.4811
-79.8835 193.8841 -93.6225
-69.7055 194.6587 -79.4678
-104.4731 192.9089 -114.7546
-73.2032 194.6547 -65.7818
-125.7906 192.3468 -126.8038
-79.2636 193.6967 -100.6583
-120.4159 192.5569 -126.5219
-76.0095 194.0344 -97.4322
-108.7085 192.8318 -127.0593
-82.3992 193.7870 -105.4544
-70.1247 194.3662 -84.0071
-86.3649 193.7661 -112.6529
-68.3759 194.3152 -85.2657
-98.5477 193.2511 -125.3455
-57.7813 195.4054 -63.4953
-89.6372 193.5079 -115.3641
-66.6572 194.4066 -87.7392
-80.2321 193.4079 -112.8388
-66.2771 194.4796 -88.5309
-79.6665 193.3904 -114.3426
-51.8160 195.4236 -58.8157
-80.5744 193.4315 -115.2422
-48.2309 195.6503 -63.4764
-79.6066 193.4048 -115.5497
-60.3170 194.5351 -93.9138
-88.3208 193.0947 -126.0394
-50.9831 195.5843 -46.4208
-76.8798 193.6930 -118.7690
-45.9493 195.8126 -52.0507
-61.2495 194.7552 -105.5052
-47.2154 195.8395 -48.8437
-70.6304 193.7003 -119.4384
-61.2687 195.5353 -36.1609
-84.8999 193.3641 -127.4408
-36.6874 196.1421 -58.0024
-55.1220 194.5885 -112.9098
-35.0443 195.8895 -87.7805
-34.4567 196.7351 -53.8039
-52.2325 194.7037 -112.7064
-47.8543 194.9551 -103.6893
-31.0298 196.4948 -57.7218
-65.4495 194.1588 -129.4238
-30.2572 196.8264 -55.7329
-55.5405 194.3618 -124.9753
-32.5384 195.5371 -101.3803
-27.9864 196.7229 -56.6661
-45.6084 194.7227 -118.2947
-30.0038 195.5169 -102.7634
-28.2274 197.4655 -53.3870
-40.3505 195.1765 -111.6247
-30.2794 199.0049 -50.9431
-38.0003 195.2864 -113.8198
-32.2468 199.0664 -50.0378
-33.0450 195.2509 -105.7937
-15.1202 196.8660 -63.0921
-15.5528 196.1849 -86.4622
-17.8311 196.9731 -60.3556
-13.4864 196.5012 -76.8288
-40.3205 194.5468 -125.8305
-21.9021 198.4410 -55.5254
-27.7052 195.3383 -113.5531
-10.0887 196.7522 -66.3654
-12.7765 196.1657 -97.2458
-15.6324 197.6496 -59.2048
-7.8327 196.6457 -77.4181
-6.9393 196.8964 -72.8290
-17.5651 195.8569 -116.6738
-8.2253 196.8258 -68.6328
-6.0487 196.7945 -77.3045
-23.4821 195.3509 -125.1993
-4.8218 197.0097 -74.8039
-17.8654 195.4147 -120.7359
-13.9724 198.8892 -58.7200
-15.4569 195.7801 -121.0025
-1.3047 196.9888 -69.0160
2.9840 197.1371 -78.6357
-1.0757 197.5567 -64.5793
0.9417 196.5594 -106.5034
-13.0282 205.6668 -57.7297
-1.1022 198.0627 -63.0858
-11.9310 196.0544 -124.2436
-6.9156 200.3870 -60.2996
8.1797 197.0481 -107.8297
-8.9313 207.1739 -58.8048
6.4146 197.6468 -67.1186
2.1649 199.1421 -62.2529
3.6325 199.3721 -62.4801
9.2712 197.7592 -67.2151
5.3498 199.3600 -62.9779
-4.2994 207.4274 -59.6935
-2.2047 207.2262 -60.1487
2.8788 205.1853 -61.6580
-3.3793 210.1979 -58.7129
3.4227 206.8332 -61.9901
16.1237 199.0038 -64.5175
-2.4421 213.0466 -56.0125
2.8432 208.4831 -61.7468
16.3277 200.2356 -63.8684
1.2474 210.6481 -60.2610
19.1991 200.3710 -63.9068
19.2769 213.8170 19.1032
17.1873 215.3378 24.1111
16.2965 214.9155 25.9046
19.5986 211.4871 16.2925
19.2039 209.8220 16.5614
19.5116 209.0786 16.5389
19.1528 204.7822 24.3535
19.7768 208.9908 15.5867
19.5002 202.7540 23.0304
21.4616 201.9283 15.3334
25.0993 209.5430 7.1469
17.4323 202.7106 29.3428
18.7214 201.6576 25.3842
25.3982 208.6843 5.8134
19.2444 199.3562 18.5657
22.6744 202.0183 8.0201
24.2688 206.0547 3.4826
18.7904 198.7947 17.5257
23.0755 201.2511 6.1641
22.8857 199.7541 6.4637
19.4038 198.6651 8.9523
18.9182 198.5200 7.2457
17.3857 198.3542 12.2515
23.1226 198.9998 4.1218
8.2931 197.9077 15.7528
-1.3287 197.8348 15.9693
-8.6314 197.2335 9.1219
-11.5734 197.4353 22.4054
-13.7725 197.4563 24.1603
-18.3121 197.3558 22.5610
-33.9186 196.6322 18.0062
-39.4022 196.7524 26.3892
-38.3138 197.3247 28.6351
-49.2979 196.4067 28.1673
-44.6066 196.9068 32.5332
-47.3069 196.6409 34.8736
-43.2711 197.4026 35.1216
-45.5218 196.9631 37.0438
-41.2881 198.7300 35.4815
-41.9907 198.0749 37.2402
-38.5021 200.6562 33.0894
-70.0231 195.9512 21.3194
-41.5291 198.7655 41.1166
-76.5229 195.5792 28.6306
-76.7623 195.5090 23.0132
-84.9057 195.2650 36.2297
-82.2846 195.3521 32.7311
-69.5475 196.2935 52.3993
-83.5166 195.5383 48.6680
-91.6985 195.0585 41.9391
-92.7821 195.1233 35.1587
-92.5664 195.2209 49.0726
-40.7703 198.2380 48.7362
-40.4031 197.9872 51.0849
-100.1482 194.9993 28.8464
-89.4151 195.4942 65.5335
-103.2010 194.5303 21.2968
-107.9432 194.6341 22.3744
-110.7466 194.5859 24.6597
-108.4811 194.7033 52.0229
-85.9800 195.8455 75.2249
-93.7402 195.4365 71.0988
-97.4886 195.3719 71.9409
-109.6730 194.6835 65.2694
-120.5407 194.4155 32.3247
-118.0158 194.1067 9.3860
-115.3695 194.8319 56.3832
-108.6094 194.9028 67.5961
-114.8141 194.7126 60.2470
-84.1287 195.9797 83.8136
-107.8656 195.1201 72.1097
-117.5835 194.8060 63.8353
-92.8496 195.7371 85.7910
-129.8763 193.9871 18.6767
-123.4328 194.4975 57.7030
-110.6484 194.9638 75.9720
-133.9790 193.9010 24.9929
-125.1522 194.4930 60.2257
-95.0312 195.9181 94.2799
-134.6407 193.9298 20.8082
-134.0502 194.0410 53.2632
-94.4998 195.9524 99.2941
-110.6096 195.5566 93.1882
-133.2473 194.4271 62.4789
-118.5502 195.0710 83.3026
-120.5406 195.2461 87.6718
-128.1842 194.8766 81.3601
-134.0988 194.4807 74.4927
-128.8875 195.1388 88.1569
-128.0634 195.2536 89.7098
-102.8406 195.9011 112.9385
-111.2232 195.6724 112.0846
-101.6798 195.8648 117.9760
-134.4558 194.6990 93.8565
-126.6417 195.2082 113.3691
-100.6163 196.0860 129.0906
-117.0871 195.6449 121.8758
-132.9428 195.0554 122.1649
-49.9630 210.7352 37.9137
135.1503 201.4932 -115.3343
126.1204 201.1011 -107.6905
123.7872 201.1110 -106.2576
120.9180 200.9148 -112.6108
118.3405 200.7537 -111.8899
127.0287 201.4027 -83.4401
111.8456 200.4855 -103.2799
110.8054 200.4231 -110.3286
109.5723 200.7582 -98.8171
113.7070 200.8943 -96.3098
133.6198 202.0059 -68.4957
128.4933 201.5864 -71.5351
102.8112 200.0691 -124.1843
98.1815 199.8986 -111.5739
97.9643 199.7643 -115.6233
111.4170 200.7720 -78.7676
132.6783 202.1151 -56.9499
100.5912 200.0177 -128.1590
89.1580 199.5387 -112.2056
88.1416 199.6146 -99.6193
93.8814 200.0454 -86.6068
92.4382 199.4768 -128.5344
83.0555 199.5259 -93.9417
115.5410 201.3340 -55.1620
85.5658 199.4710 -117.7189
92.7925 200.0677 -81.1017
115.1647 201.3509 -49.3984
80.3426 199.4722 -91.0216
106.5782 200.8415 -51.3022
112.4939 201.3143 -49.1671
77.1592 199.1865 -116.4395
105.5928 200.8978 -49.2645
77.9006 199.0859 -118.3937
74.4880 199.5198 -83.0455
111.4925 201.4685 -42.6771
70.2667 198.5828 -127.0958
91.1565 200.1442 -63.3784
128.8402 202.2874 -29.0766
68.2338 198.6628 -124.2658
76.0434 199.5218 -68.6352
87.0706 200.0831 -53.2708
90.9120 200.3914 -42.1962
111.6652 201.5869 -30.9785
60.5276 198.1128 -131.4571
59.3018 198.3055 -127.4202
97.2676 200.7588 -35.5594
99.2982 200.9247 -33.9750
122.2537 202.4247 -13.3598
112.7506 201.9845 -18.9133
100.3643 201.1817 -27.4670
118.3167 202.0162 -12.0594
102.9077 201.3759 -19.4023
82.6269 200.4585 -27.7574
102.0237 201.4346 -17.7816
101.6123 201.5187 -15.6470
117.4463 202.3383 -1.0056
115.5069 202.2675 2.2826
107.6911 202.1139 -0.5507
113.5268 202.2544 6.4095
94.4298 201.3020 -0.0698
107.8831 202.3609 5.8117
91.9216 201.4649 2.8751
134.7018 203.8676 18.1104
131.7726 203.7201 21.9884
107.4214 202.5041 20.1030
107.4674 202.4531 22.9342
108.2330 202.6682 25.5681
-92.0168 194.5697 -28.3765
-103.5514 194.3738 -24.7985
-89.3910 194.9027 -25.8306
-103.5581 194.3352 -21.4639
-107.0211 194.4515 -21.5848
-99.1509 194.7982 -17.0894
-99.6736 194.6974 -14.5338
-80.5378 195.2482 -27.5844
-81.8646 195.2297 -24.7806
-89.5069 194.8167 -17.4312
-96.5184 194.6189 -11.2140
-101.6600 194.5827 -10.3594
-88.1214 194.8555 -14.7739
-121.6087 193.9543 -22.9764
-77.0757 195.2464 -16.9920
-118.9267 194.1139 -17.3661
-122.7126 194.1255 -19.8191
-73.3442 195.6528 -11.9688
-126.7353 193.7057 -25.7665
-59.7751 195.5456 -39.8815
-121.4521 193.9780 -12.1711
-102.4426 194.5620 -0.9269
-79.6140 195.3274 -5.3181
-97.2395 194.4737 -0.8747
-126.3295 193.3594 -32.8059
-103.1668 194.4317 9.4799
-64.4337 195.8954 -17.3957
-93.7536 194.4128 1.2421
-129.0119 193.6620 -17.0243
-58.2740 196.2650 -30.0702
-91.1543 194.7113 5.4802
-61.0874 196.1779 -24.5129
-69.9338 195.7222 -3.1668
-130.9891 193.8853 -13.3921
-60.8920 196.5092 -23.7236
-95.6813 194.8616 8.9795
-60.6997 197.4088 -22.3938
-66.6998 195.7321 -8.6165
-131.5814 193.7342 -8.7025
-61.5882 197.8927 -19.6114
-55.1736 197.4428 -32.1576
-133.2081 193.6437 -8.7957
-55.9401 197.0837 -30.4248
-128.8038 194.1184 17.0084
-59.9829 198.3964 -23.0532
-61.9326 196.2384 -7.9183
-59.7332 199.8245 -23.9316
-61.0049 195.9859 -5.3146
-57.7931 200.0970 -27.2367
-60.5629 195.7924 -3.7525
-55.3360 201.6679 -31.6200
-59.1381 195.9365 8.4519
-57.4166 195.8108 0.1867
-58.2502 196.0197 10.4299
-46.8356 199.2287 -40.2099
-44.4191 198.6787 -42.2071
-43.2208 198.8248 -42.5258
-42.4642 196.2419 -49.3949
-40.9020 198.7774 -43.4735
-40.2600 196.5746 -49.3720
-41.6061 201.6030 -41.7340
-38.0807 199.7018 -44.2503
-36.0550 199.0257 -47.0808
-40.1473 204.9639 -42.8694
-40.2503 205.8741 -43.0031
-36.7229 207.4400 -45.1362
-34.1229 208.7834 -46.2068
-30.9160 208.5571 -47.8619
-27.9661 210.1946 -48.7475
-23.1586 208.7063 -52.0275
-24.5759 210.2523 -50.3947
-19.9943 204.4336 -54.6882
-27.3943 213.0368 -45.6899
-22.8033 211.7952 -49.3058
-31.6669 215.9626 -39.9359
-24.8197 215.7135 -42.4468
-19.1254 213.5100 -48.5621
-22.9550 215.8696 -42.8465
-29.0647 216.8186 -38.6684
-13.6843 209.6943 -55.7028
-13.0455 210.8163 -55.0444
-26.1309 217.1563 -38.7363
-25.8857 217.3513 -37.7082
-10.6637 216.5770 -46.5672
-12.8510 217.3684 -43.5367
-12.6533 217.8536 -42.0733
-7.5966 216.5526 -47.7759
-11.2252 218.0806 -41.3808
-22.6075 217.5592 -33.1239
-6.7618 211.9196 -55.8549
-7.2254 218.1641 -41.8650
-2.7672 214.4027 -53.9641
-10.1630 218.0665 -37.9692
-9.5856 217.9186 -37.6548
0.0384 212.7925 -57.3651
1.0138 214.9210 -54.7779
1.4179 218.0070 -49.7897
132.8067 204.8531 129.6415
127.5653 204.4654 121.8281
126.9175 204.2087 115.7692
115.5975 204.0714 130.5716
107.7346 203.7944 117.3821
105.6742 203.4777 114.0200
108.2774 203.3451 103.5563
96.4341 203.1143 115.6681
91.2251 203.1732 126.2369
97.4737 203.1735 98.7083
88.3243 202.9213 120.6660
96.1550 202.8906 90.3203
85.1595 202.7442 110.1175
86.4398 202.4944 92.0085
71.1518 202.2749 129.0758
80.7585 202.1481 104.3437
81.7699 202.2001 103.0821
78.7495 202.2094 102.0209
71.6600 201.8197 104.7203
63.5415 201.5068 112.3576
75.8362 201.7353 80.2746
71.2364 201.4761 74.9820
68.7638 201.3948 88.8645
57.9332 201.3351 104.9832
51.7487 201.2844 123.5786
46.4978 201.1075 131.3177
47.2206 200.9878 116.7645
46.0933 200.7842 97.5343
44.9407 200.8208 104.3867
41.1455 200.8470 105.9355
45.7348 200.5678 87.9450
42.2230 200.4877 86.7122
29.8883 200.7337 124.9977
29.5101 200.7867 127.6504
31.7586 200.3873 101.9841
28.3060 200.2761 104.6654
27.7122 200.3119 100.0697
23.5777 200.2485 108.0744
23.6676 200.5951 125.1085
22.8605 200.3376 112.5906
23.3811 200.4046 117.5213
14.4599 199.8347 103.6786
18.5206 199.8512 87.4926
19.1874 199.7572 83.1699
11.0046 199.7879 80.4258
7.0775 199.6120 80.4350
1.6962 200.3412 81.5412
-2.5511 199.4658 84.1525
3.7258 201.0311 77.8544
0.7530 204.0512 80.2489
-1.6662 204.9291 81.5429
1.1380 205.9676 79.3443
-4.9806 207.1570 82.1748
-4.5998 210.9877 82.5644
-1.9495 213.4077 79.7407
-5.2836 212.5926 82.7372
-125.0935 195.6393 131.5108
-96.4564 196.3350 130.0960
135.0227 204.5065 101.8133
134.0188 204.3546 84.2683
134.5848 204.1534 68.7829
126.2727 203.9805 80.3012
133.8210 204.1415 59.6562
125.6584 204.1433 110.6108
122.2994 204.0224 96.6388
128.7075 203.8056 52.3695
118.4014 203.9050 102.9569
123.4752 203.4815 63.4816
113.2354 203.7791 109.6163
117.4082 203.4659 82.7132
111.8009 203.7012 95.3944
134.4527 203.8185 40.2768
131.3222 203.7260 38.8263
121.0592 203.4869 43.6949
109.6785 203.1763 68.1738
104.5438 203.2547 93.4591
132.0882 203.6433 33.2037
110.3794 202.8662 47.4428
97.6878 202.8853 75.3848
98.1487 202.9804 83.4826
105.5477 202.6406 40.9573
95.1883 202.7307 76.2082
96.3113 202.5458 65.2017
99.1414 202.2927 41.1514
119.2887 203.1385 28.0886
90.3684 202.3287 72.7670
88.1666 202.2576 74.1869
103.8932 202.2942 29.2611
90.0966 201.7112 33.1922
83.1251 201.8687 59.0657
83.5167 201.9867 72.4211
84.6982 201.3652 26.6200
71.6201 200.5891 31.4983
71.3656 201.2659 67.5691
62.0944 200.5585 41.5977
59.3189 200.4816 42.7231
59.7231 200.8288 34.9885
61.4786 201.1143 29.4457
57.1326 200.8124 48.8136
55.9737 201.0995 47.2499
55.4532 201.1369 43.8224
53.5661 201.2733 36.2065
53.4176 201.1843 42.4238
52.8386 201.2742 42.2136
51.4063 202.3527 40.4815
51.3534 202.7005 41.0659
51.1014 201.8390 37.5524
51.8755 204.4590 41.9432
53.6998 208.1275 46.0244
53.2431 198.1168 -128.7353
44.8156 197.9850 -123.3635
39.7935 197.7215 -123.6545
50.9922 198.1932 -120.8518
60.6171 198.5109 -117.5855
66.1070 198.6594 -122.8204
49.6865 198.2426 -115.9443
16.0667 196.8635 -124.6201
53.6695 198.5237 -109.9546
18.3661 197.1481 -119.7001
48.5297 198.1633 -109.0404
63.4910 198.8048 -108.3982
60.8185 198.6887 -105.9896
58.0030 198.6455 -104.1345
55.8305 198.5455 -103.5235
12.5948 197.0055 -109.7459
40.7180 197.7085 -101.8035
60.8186 198.6613 -93.3706
77.7720 199.4288 -99.3707
22.2210 197.6396 -88.9221
37.6210 198.1920 -88.8236
59.3736 198.6461 -90.9785
7.0233 196.9204 -102.9909
72.3709 199.3002 -89.0581
5.0784 196.9638 -93.9139
60.9405 198.9428 -86.0964
52.2291 198.5098 -84.9545
18.8720 197.5163 -79.8630
63.4932 198.8735 -84.0274
48.9888 198.5992 -78.1260
43.8358 198.2946 -76.8608
40.8837 198.1346 -73.3971
66.0916 199.1758 -74.6875
53.2635 198.8244 -68.6674
29.5678 197.9513 -75.4379
14.5678 197.6813 -68.7793
29.7813 197.9536 -68.3886
12.6212 197.8581 -67.3544
44.5808 198.5144 -63.0323
76.1682 199.6852 -61.7131
65.2160 199.1438 -58.9252
25.9951 198.5338 -64.5024
40.5703 198.5458 -59.9373
51.7222 198.7426 -56.1198
31.0982 199.1158 -62.2934
74.0087 199.5007 -47.8172
24.3994 199.0827 -63.4282
40.5617 199.3285 -57.5079
49.0045 198.9913 -52.7080
21.2406 199.9355 -63.5857
56.7025 199.0014 -46.3290
45.7514 199.4692 -53.3316
42.2197 199.9825 -55.5650
53.3905 199.2932 -47.0896
41.6192 201.0075 -55.2156
45.1779 200.1700 -52.5708
19.0806 203.1429 -63.4129
43.1835 200.8953 -53.7681
45.6314 200.4118 -51.6854
53.7346 200.0710 -43.7292
46.0487 201.0503 -50.8331
74.1660 199.8896 -32.8318
53.9376 200.3194 -42.7080
51.7916 201.7709 -44.8548
30.5847 207.7071 -60.2599
54.8821 200.8676 -40.2329
18.9867 207.3763 -63.1042
53.7442 202.1075 -41.7253
21.4014 207.3630 -62.6772
32.6265 209.3799 -59.6073
55.7749 201.4845 -37.7430
32.0686 210.3370 -59.3908
55.7139 202.3383 -37.6540
35.7137 210.4782 -58.5345
27.4945 211.7166 -59.6846
35.3709 211.0668 -58.2260
23.4411 213.3113 -59.6430
78.8982 200.5297 -8.5155
20.1126 213.2148 -60.3856
64.0054 199.8491 -19.2661
28.0745 212.8663 -58.9123
58.5857 205.1097 -30.0156
59.7637 201.3322 -22.9557
25.9249 214.7209 -58.1610
33.5673 213.7801 -56.6446
58.6490 207.3692 -29.2031
58.9783 202.2860 -22.9834
19.5865 215.6754 -57.8855
37.3164 213.5811 -55.1858
64.0171 200.2571 -6.2637
12.5576 214.7645 -58.0412
38.4549 213.9558 -54.2455
35.4508 216.6277 -52.7191
62.4161 200.7059 -3.4541
13.9407 217.2344 -55.2586
32.3016 219.4154 -50.5711
18.2383 218.7793 -53.7308
34.8189 218.5088 -51.0646
22.5783 218.8083 -52.8026
10.3883 218.6098 -51.4504
12.8848 218.9763 -50.8384
14.1988 219.3039 -49.4526
15.8855 219.6172 -48.3049
-129.6768 193.0220 -54.7884
14.1575 196.7731 -125.2609
13.0511 196.6854 -120.9622
-0.4445 196.4368 -119.1164
9.2155 196.7655 -114.6868
-12.1252 198.8263 92.9801
-6.5520 199.1120 88.7012
-14.0816 199.0215 83.4928
-10.3959 199.2230 83.3712
-25.4218 198.7959 97.4165
-13.1927 198.9907 104.5226
-16.6891 199.0842 77.1334
-8.5955 199.2421 104.5326
-15.1309 199.3758 78.5201
-26.9907 198.8662 101.2844
-14.5443 200.4272 77.9927
-11.8365 199.3505 108.1157
-7.6958 200.1171 81.8501
-28.3097 198.1796 72.5706
-6.6197 200.2434 82.0707
-45.5818 197.6208 81.4053
-10.8673 199.4293 109.8002
-44.5145 197.9433 90.8396
-45.1435 197.5803 76.1315
-4.8221 202.5695 81.9989
-26.9899 198.7052 70.8696
8.9696 199.6050 97.4675
-31.4797 198.7592 103.3153
-15.8729 201.7675 75.6541
9.9088 199.4587 93.7104
-14.1164 199.5277 112.5122
-12.1084 204.8342 81.3820
-54.7225 197.2384 86.9869
11.4137 199.6956 99.6272
-28.6480 198.8405 112.6052
-21.1587 203.0255 72.7601
-36.3114 197.5769 64.5641
-53.0748 197.5564 108.1609
-18.9002 204.4271 73.6055
-49.0743 197.2215 59.7408
-39.6155 198.2380 111.8005
-15.1010 208.7845 78.9691
-61.7148 196.7044 74.2082
-42.8731 197.5740 59.4702
-57.2360 197.4528 94.7014
-18.4710 206.7092 73.8322
-51.9192 197.0595 56.6988
-56.3573 197.2299 109.8492
-15.8953 208.6685 76.5917
-35.5238 204.4827 65.6839
-56.9783 197.2127 110.7478
-23.6132 207.7419 71.3127
-31.4593 206.4171 68.9268
-57.0141 197.6193 115.8654
-16.0764 209.9188 76.2537
-65.5543 196.6094 63.1387
-51.7451 196.8191 51.2510
-67.9754 197.0660 102.6070
-26.7310 209.9223 70.6460
-37.8272 207.6385 65.7603
-15.4000 212.3908 76.5188
-72.4668 196.4513 85.4080
-38.2285 200.9844 56.4406
-63.9520 197.2580 114.4537
-18.5700 213.6072 72.8861
-70.2046 196.1399 60.8276
-40.0089 198.1351 53.0851
-13.9899 213.8157 78.0062
-30.9129 212.2155 70.2707
-71.3035 196.5864 93.8321
-39.0315 198.7183 54.7249
-15.5816 213.2810 75.4941
-73.9767 195.9773 60.9039
-49.1647 196.8805 44.1265
-14.5935 214.4653 75.6275
-33.5634 211.7703 70.0050
-85.6611 195.8621 72.7888
-60.9225 196.1643 45.8163
-10.6864 213.6673 80.9975
-25.7592 215.1010 70.2607
-81.7054 196.0058 68.5407
-80.0390 196.5081 103.1712
-23.5719 216.0075 70.3124
-83.0120 195.8289 67.8368
-66.0557 197.2644 129.3021
-18.1112 219.4023 71.3031
-33.8351 213.3456 69.7816
-68.5759 197.2965 128.2277
-9.4609 214.3503 80.5544
-25.1519 217.2644 69.6937
-38.5103 213.6495 65.1756
-13.0773 218.9412 72.9455
-36.7041 215.1102 65.7710
-4.9583 213.1109 82.4041
-11.6254 219.2413 73.1603
-31.8544 217.5907 68.8845
-92.6505 196.0965 105.0797
-24.1182 219.4818 68.7796
-34.9583 216.9968 67.0594
-7.4118 215.0708 78.9336
-21.3296 221.2102 68.7340
-82.6307 196.8442 128.0654
-13.4010 224.8074 71.1556
-41.1743 215.9112 61.3118
-88.1463 196.4608 117.9143
-14.4790 225.3699 70.0440
-37.3890 217.9013 64.3317
-11.0120 223.5917 73.1091
-33.7401 219.9104 66.6676
-8.5661 221.6104 74.0828
-26.9544 220.9777 66.1943
-7.5293 216.4023 75.9584
-26.1182 222.7878 64.0046
-3.7194 216.0310 77.0586
-18.0324 227.0082 65.0848
-14.8132 228.2705 67.3691
-0.7328 214.5211 77.9302
-29.8939 222.1537 62.6680
-22.4000 226.1044 61.8487
-24.9564 225.3965 60.8248
-13.9236 229.5325 67.5855
-15.9045 229.2867 63.7046
-16.5669 229.8459 60.0578
61.6190 201.0326 9.4808
60.9137 201.5322 9.8848
62.3113 200.9563 3.7472
60.8553 202.2402 3.4538
60.3169 203.1751 2.3736
65.5029 200.1475 2.7084
64.1310 200.3616 1.3875
58.9670 210.5631 9.6485
59.7659 207.8991 2.3263
70.7255 200.5129 18.0758
65.5408 200.4082 15.7248
59.1537 214.3411 7.4663
76.5627 200.8531 14.4156
60.7293 202.2721 16.9209
69.7817 200.5280 24.6737
58.8076 215.6574 7.8128
79.9313 201.0086 15.7314
59.3648 203.4196 18.5227
88.2043 201.3636 10.4162
58.1433 216.8312 8.0364
64.1107 200.7381 20.7167
57.9793 216.7452 9.2146
61.1227 201.6239 20.7679
60.3047 211.3158 -4.1473
57.5136 212.5065 20.4230
60.2448 210.1591 -5.0735
56.3185 215.9113 19.8807
89.5095 201.5701 25.3061
58.5527 204.4780 22.2504
95.8010 201.6971 18.1813
57.9674 218.0915 0.6200
56.8997 214.1640 21.9688
104.8143 202.2018 17.4119
56.3836 221.0352 1.1259
56.1676 211.8313 27.2819
63.7747 200.2974 -8.1581
60.3678 210.4838 -9.9216
58.1058 205.0289 26.2870
65.9248 200.0427 -7.8420
57.2686 219.8483 -4.0545
55.0114 222.8353 10.7649
55.5749 211.1417 29.3545
99.4517 201.3671 -3.1753
55.7628 222.0302 1.1824
54.4752 218.2435 22.9735
60.9426 201.6040 27.7219
56.2194 221.8274 -4.0116
59.6555 202.8087 26.9465
55.3186 210.6316 30.1813
59.7973 212.5819 -12.1362
53.2468 223.6347 4.6469
52.8788 223.1500 17.8797
59.9321 202.2132 28.5420
56.8492 219.5639 -9.9469
52.4151 224.7956 8.1561
52.2599 224.0831 15.9127
63.6796 200.0436 -13.0912
57.0227 218.6438 -12.2264
50.2936 225.8686 11.7133
54.0858 213.9508 31.8862
61.1238 201.3093 -12.5595
55.5304 221.6711 -8.3046
57.7617 202.6990 30.9699
53.2556 217.8942 28.4867
59.6682 211.9439 -15.5338
48.6361 226.8826 11.2544
52.6039 218.6252 29.6510
60.0126 206.5019 -19.2682
48.4092 227.2202 4.9087
53.0062 220.7839 26.8918
52.5630 205.5476 34.4493
56.8611 218.4827 -18.1510
47.0797 227.6377 10.6107
52.4666 206.8867 35.8762
59.4682 205.6062 -20.9733
52.6737 221.0283 27.5195
55.3600 201.4696 33.8979
55.3082 221.5002 -15.0275
45.1258 228.3686 10.5302
52.6543 212.6339 36.7284
59.9959 209.2725 -21.7158
45.2037 228.1782 19.2545
51.9605 212.2084 38.9590
59.5179 209.4239 -23.4688
45.1581 227.6921 22.8077
50.4015 216.7665 38.7393
51.5844 202.5002 36.2097
56.2814 217.4543 -23.3543
50.2917 223.2647 27.3182
50.8315 214.7554 40.8073
59.2260 212.5009 -23.3398
41.5339 229.1126 8.6915
49.3185 221.6717 32.5944
55.7221 217.4508 -25.6646
46.4646 225.0563 30.2589
50.5425 214.8107 42.7481
48.2126 225.4336 -16.3904
47.4612 224.2075 30.8059
49.7829 215.9308 43.0382
42.1011 229.0981 23.6074
47.2855 219.1034 42.8768
57.9634 212.3249 -28.3492
47.6369 223.9518 31.2710
56.3150 215.0608 -29.5613
44.6972 224.9855 34.4255
50.5170 214.5973 46.0405
36.1934 229.3869 16.5070
51.6505 213.1437 45.7014
41.1089 228.5826 33.0221
52.9068 210.5196 46.9135
41.8951 226.9135 36.3319
50.6384 214.6893 47.6165
37.9940 230.2230 27.9822
32.3564 229.8315 24.4868
41.8746 221.4801 49.4213
36.4094 230.1357 31.2234
52.0348 213.2861 48.5179
38.5494 229.5375 36.1919
51.2576 214.2544 50.1832
39.3330 223.0222 51.7095
50.5332 214.4812 52.4749
38.9939 225.4201 46.8016
32.2282 230.4029 29.2231
38.2398 227.8331 43.4477
32.0050 230.6184 30.6555
46.5619 217.3683 54.2211
31.8586 231.3523 35.5779
48.7532 216.4203 53.4660
49.8088 214.5418 53.6612
34.8164 229.8696 41.4427
35.8525 228.4299 45.2382
32.0680 231.0927 38.8915
43.7715 217.6383 56.6947
22.0285 226.1835 28.2719
47.8209 216.2126 55.1919
21.7383 225.9928 27.5382
36.4433 221.8632 58.8631
20.5335 225.4972 30.1794
32.2962 225.5280 57.6862
26.0571 230.3998 36.4843
31.1206 227.0195 55.5548
24.7382 230.1077 36.8997
28.4578 227.9348 56.2648
26.6049 231.0753 39.2981
31.9042 223.9597 63.0972
27.1206 231.3346 44.0280
34.4584 221.9402 62.2405
26.7585 231.1237 49.2420
36.0301 219.3385 61.9257
26.0609 227.9075 58.6601
28.1144 231.1977 46.5040
32.4607 223.2460 65.2185
22.4946 229.8536 57.0321
38.3613 211.8859 60.1878
31.0643 224.4547 66.2871
21.2328 230.2916 56.4403
31.7479 224.0893 67.6082
20.4193 228.5730 61.6159
35.2735 217.0072 65.3725
31.2240 224.6636 68.6240
28.0360 226.4819 68.4410
32.3568 210.9239 65.5093
33.2568 222.2298 68.9641
21.7028 227.5502 65.9225
34.5005 217.6541 68.2302
33.9049 216.7475 68.7164
34.2347 218.3648 69.1196
33.9784 218.8166 69.5804
25.5271 227.4892 71.4381
24.2408 227.8289 71.8818
32.0542 200.2857 71.4106
35.2276 200.1572 64.9996
31.1547 200.6533 66.1140
41.5596 200.2099 64.3418
32.3397 201.1088 63.5517
52.4655 200.6736 74.5719
28.1032 203.9013 70.8278
26.6258 202.3008 74.7508
31.2639 201.8304 63.1514
54.9610 200.6877 67.9440
40.7248 201.3765 59.6575
55.5943 200.6842 61.3941
25.3403 200.5968 77.4860
30.5025 205.3182 64.4201
25.0268 200.3185 78.2510
30.6515 204.2460 63.8024
25.9977 200.1032 79.3339
31.5003 206.3880 63.8009
23.0048 201.0410 77.3864
62.0225 200.8156 53.9374
34.4654 205.9215 61.3015
49.2848 201.8439 56.6030
37.6724 207.7536 59.7589
50.0390 201.7658 55.9217
39.6213 208.3237 58.9128
52.1917 201.9441 53.6704
31.4395 214.5799 69.6642
59.2345 200.6221 49.4113
44.6379 205.9637 57.6507
57.1326 200.8124 48.8136
23.8645 213.2314 75.3416
19.9276 208.4767 74.3185
76.9313 201.4926 49.2333
16.6772 207.1828 75.1762
47.5989 207.5734 56.2769
15.2166 205.5004 75.3190
15.8889 210.3961 75.4596
44.5319 212.3826 58.3062
52.6215 203.2921 49.7068
45.7425 211.0524 58.0655
46.5237 209.4971 57.4014
45.8444 213.5020 57.8517
13.7725 216.4103 76.2700
13.4355 203.2516 75.2629
20.8129 219.8409 77.7443
10.2396 205.6438 74.9598
24.7412 219.9256 75.1505
21.6745 219.8744 77.4892
10.3457 201.4313 75.3511
8.8183 216.6606 76.9423
9.9555 214.6716 76.9655
6.2447 211.6888 76.8717
17.4306 224.8406 75.5066
7.5067 202.6620 74.7411
25.1518 226.3206 72.5111
15.9521 225.2875 74.4844
5.0358 203.9274 75.5838
4.1273 217.4771 76.5945
3.8205 215.8849 76.8876
2.9588 204.2432 77.4389
1.9544 219.5085 75.8900
1.7467 213.2796 77.6038
0.7789 213.9698 77.7178
-2.1459 215.9099 76.9887
16.8880 205.3474 -38.3786
15.3748 202.8250 -33.8981
13.7944 202.6843 -33.3414
12.5972 204.4356 -36.2604
14.8990 200.0872 -28.9367
18.0211 198.5275 -25.3465
12.7265 199.1834 -26.7192
24.0368 199.0042 -22.9369
11.7440 197.9752 -20.6516
13.3997 197.7785 -11.7561
7.2645 198.7000 -22.2214
6.4241 198.9474 -22.2880
5.1089 198.8947 -20.2392
2.6748 199.0250 -18.1369
-2.2874 197.4242 3.8167
2.2695 200.7136 -20.6060
-3.2216 197.9351 -14.8728
-0.6459 200.7566 -19.0588
-1.1953 199.8264 -18.2373
-2.1236 208.8875 -27.6625
-12.0890 197.2977 -8.7190
-5.0743 198.7732 -18.0065
-4.5714 205.1412 -22.0710
-2.7073 203.1566 -20.3599
-19.4322 197.2701 -7.7548
-6.0300 206.1109 -22.6170
-18.7743 197.9436 -10.1286
-6.8422 204.7384 -21.7008
-15.5667 198.7557 -12.6175
-11.5474 199.8075 -18.7945
-10.1797 207.4068 -22.6842
-14.4456 200.0083 -15.9065
-9.0489 210.3835 -26.5759
-25.9187 197.6585 -11.1799
-9.6276 210.2805 -26.3377
-33.3121 197.2560 -7.4257
-8.7831 201.4198 -20.5635
-28.4632 197.9010 -11.1725
-13.2744 207.9228 -22.3706
-24.3665 198.1589 -12.3887
-6.6605 214.7106 -31.0213
-21.8567 202.4938 -14.7327
-20.3952 203.2045 -15.5760
-14.1654 208.5557 -22.5465
-25.3070 198.4815 -12.9065
2.0561 216.7712 -39.0706
-34.5026 198.2518 -8.9091
-7.4806 216.3294 -33.2430
-15.4510 210.8034 -23.5694
-26.5164 199.5616 -13.2888
4.9306 216.2316 -40.3781
-27.0554 200.8598 -13.5088
6.2887 215.4619 -40.5206
-37.7612 199.5149 -6.8596
-8.9071 217.0096 -34.7093
-36.0364 201.3337 -8.7167
-0.4951 218.2008 -41.8845
-32.0917 207.1198 -11.4407
-18.4439 213.5282 -24.5467
-13.3413 217.4274 -35.2204
-25.5844 209.1481 -15.7593
-23.6370 209.2746 -17.4525
-20.8938 211.2490 -21.9047
-38.4251 208.1510 -7.3176
-25.6226 209.6892 -15.9127
-39.0200 207.1500 -7.0566
-27.2486 210.2597 -15.2306
-39.9214 207.9426 -6.6368
-22.9465 212.0898 -21.5384
-33.0928 211.0661 -11.1740
-28.0635 213.3794 -17.8266
-23.4281 211.4122 -20.3872
-45.2274 206.1491 -5.4907
-30.1199 213.4421 -15.9268
3.8911 218.4917 -49.8110
-28.8245 216.3282 -21.3561
-31.1294 216.6887 -19.2549
-33.0318 217.2529 -18.6921
-58.7310 262.7697 -19.6248
-59.2179 260.7846 -19.1589
-56.5343 259.5389 -22.3123
-56.2286 265.8573 -21.7025
-55.8372 265.5198 -22.5640
-55.4852 264.8745 -23.3097
-60.0785 259.1550 -17.0469
-55.0232 266.3845 -22.6225
-54.2744 257.5333 -25.9447
-57.6615 264.3151 -16.3238
-54.2646 266.8101 -22.7698
-50.6881 262.8515 -26.5844
-53.5721 267.4028 -21.4885
-53.9791 265.9986 -23.7720
-55.1620 252.1934 -23.9263
-59.5612 256.1877 -16.2121
-59.7342 252.9947 -16.7337
-53.0646 266.0914 -14.9706
-54.7566 250.2061 -24.2183
-49.7485 267.1840 -25.5087
-55.7800 249.0302 -22.7173
-48.3940 259.0775 -30.2982
-52.3625 264.2484 -11.3207
-56.9548 248.1626 -21.8409
-51.2877 268.1023 -23.2241
-61.0679 247.7385 -18.3251
-53.4991 248.9227 -26.8194
-61.8323 247.3901 -16.9950
-61.9175 246.9357 -17.9494
-52.5467 247.9380 -27.4488
-59.9435 253.3882 -13.2475
-47.2120 270.3688 -16.9546
-63.7050 246.2163 -15.4738
-63.8376 245.9260 -18.1322
-46.5031 273.6746 -22.9453
-48.9238 271.4407 -30.8577
-62.0886 250.6523 -8.6809
-65.4688 244.3031 -16.1007
-49.6808 273.9884 -29.1813
-48.1321 274.1590 -26.4780
-64.2307 249.1604 -7.5730
-66.3179 243.2160 -13.8849
-49.0465 275.5505 -28.5043
-48.7170 274.7645 -32.8169
-67.2609 243.0386 -12.3813
-48.8672 275.9699 -28.5821
-47.3133 276.9186 -33.8809
-67.2393 246.8440 -9.4986
-48.9056 276.5545 -29.5657
-45.7077 278.9098 -29.8043
-47.3719 278.0727 -30.0259
-41.4753 275.4068 -38.0808
-44.5170 279.5950 -30.7760
-70.4550 237.0349 -17.8636
-42.3975 278.7330 -36.7222
-46.4213 278.9084 -31.2916
-69.0950 239.3938 -8.2890
-68.9948 236.1034 -9.0929
-70.5760 235.5318 -17.8517
-69.3744 234.4922 -13.6707
-13.5666 230.4125 52.2524
-11.1116 231.4575 59.0388
-5.3428 230.3426 53.1966
-11.3509 231.4574 59.7396
-9.3203 231.7738 61.5976
-18.6887 230.4939 53.8606
-0.3854 230.9984 60.6242
-16.1464 230.3726 58.4339
-1.2983 231.1068 61.9719
-14.5701 230.4527 60.7610
-0.5701 231.2224 53.9221
-16.0283 228.1947 45.3791
-0.7681 230.5647 52.3724
-20.8073 230.0116 56.0756
0.2961 231.3338 54.0700
-1.5137 228.2112 49.2376
-5.9414 232.8082 68.0390
-22.4167 231.4678 51.0709
-9.4510 232.6078 66.3007
3.6517 231.3116 55.1606
-22.9567 229.8474 45.4221
-1.7618 231.9155 67.7896
5.6391 230.8531 61.0915
-16.5689 225.5299 40.7083
0.6343 231.4234 67.4960
6.0421 230.5805 63.6245
-6.3352 232.8110 69.6819
4.9615 231.1489 54.5758
-23.6131 232.2403 55.2255
6.8692 230.0751 51.8844
-25.2118 229.6540 43.5816
-11.7485 232.4430 68.6968
3.7356 230.4437 67.9181
-24.4374 232.5778 55.6457
8.7291 230.8004 52.8335
-25.4931 233.2815 53.4817
-11.2632 232.7606 69.2725
11.7935 230.1610 50.5764
-25.0439 232.6515 55.9290
-3.2661 232.2115 71.6435
-26.5104 233.1943 49.3276
1.2406 230.7678 73.0482
13.0941 229.2276 65.9071
3.5022 229.0155 72.2361
12.9539 231.3761 55.7598
-11.8465 231.9663 70.6543
-0.3837 230.9140 73.5885
-10.6896 230.2451 72.5989
0.7137 230.7094 73.6263
16.6131 228.5887 65.4934
2.3751 229.7157 73.5034
-11.5693 229.2751 72.2179
-0.4959 230.3434 74.7799
-9.5266 228.9830 74.2397
-2.6342 230.0498 75.0402
-7.1954 228.4283 75.2148
20.4305 227.6860 66.9065
6.4187 225.2837 73.2856
-5.6798 227.7599 75.8893
-0.3398 229.1822 75.7780
-0.3721 228.3001 75.8473
17.7546 227.2500 71.8951
13.9369 225.8132 73.1864
-4.2467 226.7991 76.1548
-8.1982 225.2954 75.0686
23.0542 227.9407 70.1749
10.8465 223.0607 74.1372
-2.3756 223.6368 75.8213
-2.6225 221.3178 75.5116
20.5977 226.8769 73.9911
22.6767 226.0536 73.8235
-2.1459 215.9099 76.9887
-44.7265 268.5301 -14.6468
-46.0961 267.9213 -13.5034
-46.9948 269.8949 -16.0842
-43.5450 267.6440 -11.8749
-48.6992 267.0850 -12.8277
-46.6796 266.6314 -11.2030
-38.9679 272.1486 -14.0541
-39.2305 270.4387 -12.1402
-47.4989 264.6889 -9.8717
-39.4090 268.0260 -9.8528
-38.0481 268.3141 -9.6128
-35.4311 274.6009 -14.4013
-36.4213 268.6404 -9.5224
-35.1249 269.4632 -10.2188
-54.7038 261.8985 -10.6263
-32.4096 270.6068 -11.3555
-34.4901 267.0558 -9.2225
-56.0493 259.4872 -9.4166
-57.0671 260.1089 -11.2275
-44.6737 259.3264 -3.3652
-48.9033 257.2912 -2.7988
-46.5353 256.4058 -2.1583
-50.8396 250.7615 -0.2774
-48.3653 248.8374 0.4154
-48.9847 247.8191 0.5538
-48.3359 246.5263 1.1238
-53.8151 246.8172 0.6274
-46.3115 245.9772 1.8492
-45.1162 245.7151 1.5526
-53.1685 245.1075 1.3369
-55.3338 245.1104 1.2267
-52.3821 242.6730 2.2547
-55.4183 243.2432 1.5629
-49.9121 239.4335 2.6785
-54.1800 240.8959 2.6964
-52.8061 238.7807 2.9320
-52.9957 237.0909 2.9612
-58.8023 236.1586 1.9038
-59.2531 233.7508 1.9222
-57.2553 231.8290 2.5877
-59.1480 228.4423 2.2659
-50.4260 228.0413 2.3687
-56.3058 223.4291 2.4740
-53.7390 220.7275 1.6454
-61.7872 219.8802 2.4141
-1.2832 216.7936 40.0505
-4.1231 220.0610 40.4591
-4.3697 221.2829 41.0277
-5.7701 220.4185 39.6509
2.3670 216.0661 41.1646
-6.9961 220.4860 39.0224
0.2341 213.1070 40.5777
1.9417 213.7783 40.9924
-7.3679 223.1513 41.1951
-6.7769 214.2494 36.5606
4.0084 224.8329 44.1286
-10.2701 218.1387 35.2157
2.7106 211.7441 41.0158
3.3021 226.6980 47.2172
-10.8472 219.4346 35.6305
-6.0539 211.4613 36.3086
-11.3346 221.7081 37.9718
-6.3708 210.1725 35.9318
-1.9294 205.0361 41.0865
-12.0580 225.8347 43.9462
-11.8020 211.1979 31.6343
-13.3320 221.3609 35.7494
-7.6955 208.0323 34.7545
4.5137 207.8195 41.1178
8.3499 208.9393 38.4060
-15.0404 226.9304 43.8098
-8.2113 207.1764 34.3529
-7.7337 204.2755 36.1878
-15.4522 214.4296 29.9883
-16.0113 221.7920 35.6636
-15.4921 207.7560 29.1860
-17.4984 225.3864 40.0936
-16.2128 208.8920 28.8478
-17.9365 221.4747 35.2852
-17.3760 207.4120 28.4011
-20.3383 226.1450 40.4708
-4.4782 198.9656 39.5606
6.1811 200.3449 41.5484
4.7382 199.8814 42.7864
-17.6249 204.5491 28.3073
-22.9995 225.7565 39.1071
2.2752 198.6659 40.3075
-19.0322 213.3092 28.6559
-12.7611 200.4949 32.6326
-18.1252 203.6872 28.1312
-20.2412 212.4940 28.4450
-5.5671 198.2363 36.1310
14.2876 202.4054 33.3799
-25.4886 226.1028 39.1008
-23.7109 204.9786 27.3443
9.1676 199.8344 34.7742
-24.5958 220.0067 32.4320
-16.5812 199.3547 29.2284
-25.4151 215.6132 29.8513
-7.9286 198.0466 33.8074
-17.1246 198.7697 28.3330
-26.7330 220.2389 32.2983
-7.5098 197.9198 32.7264
-23.8593 208.7622 27.7311
11.5928 199.3762 30.5372
-26.9545 227.8538 40.6192
-27.2570 205.2930 28.2054
-28.1976 215.3721 30.1435
-27.0436 229.8339 42.6866
-21.3222 199.2135 27.2844
-29.3518 227.4403 40.7892
-22.5283 199.2128 27.2080
-16.8647 197.6455 24.9939
-26.4093 209.9985 27.6947
-25.0174 199.7473 27.0295
-26.2739 211.6121 27.5607
-27.8044 199.7276 27.7224
-24.7581 198.9922 26.1033
-32.5821 213.6720 31.0757
-23.1827 197.3162 22.7160
-38.0799 202.6995 33.5570
-28.9152 197.5388 24.4502
-30.6233 197.8063 25.4968
-29.0723 197.2668 23.5822
-39.4579 217.0825 -35.2328
-38.5474 216.1619 -37.0639
-37.8121 215.6211 -38.3115
-43.5610 214.7445 -38.2117
-45.0740 214.6821 -37.6660
-45.8189 216.2859 -36.3975
-38.6114 213.4727 -40.9632
-46.6840 213.8465 -37.3211
-45.5382 212.8475 -39.1130
-45.7460 212.2375 -39.0858
-44.7067 211.3738 -39.8575
-48.0385 211.8982 -37.0354
-35.7782 210.6926 -44.5379
-47.3209 208.7568 -37.8331
-54.5322 213.7528 -31.6932
-55.5993 219.1985 -29.2603
-53.9711 208.2040 -33.1262
-57.9281 212.9997 -29.9345
-55.1194 206.8966 -32.7206
-56.7141 208.2059 -32.2792
-56.9609 206.8983 -31.8926
-52.8193 202.7245 -33.9829
-47.2693 200.0982 -39.0992
-49.6334 200.0811 -37.2835
-48.2084 199.4810 -39.0270
-56.5003 200.9420 -29.5894
-65.6454 208.8769 -21.5703
-65.0977 205.5473 -19.8434
-69.3565 211.6834 -18.0459
-69.8811 209.8967 -17.2576
-70.7410 217.0025 -17.8711
-72.2728 218.0562 -16.2590
-73.0264 220.4297 -16.8156
-70.5917 221.5120 -17.7735
-71.8209 222.5211 -14.9983
-50.4658 308.3631 -16.5278
-55.0238 312.0421 -18.9737
-49.0939 307.9566 -16.1535
-56.4055 309.2794 -19.6002
-46.3543 302.4276 -20.3128
-46.2113 301.5097 -21.2562
-48.1501 298.8211 -26.8793
-44.7089 298.6393 -24.4048
-52.3864 316.8216 -17.7560
-43.1400 293.9799 -27.9285
-40.1745 291.1536 -26.0082
-35.3977 293.9798 -22.4968
-33.1981 291.1134 -23.0664
-30.6899 286.3997 -21.8915
-28.6289 287.2907 -21.9431
-27.7740 284.8271 -20.6423
-26.5403 286.2663 -21.5822
-42.3259 218.8504 55.6289
-42.1294 218.7425 54.3678
-43.3973 215.3031 54.8576
-43.0405 215.2416 53.7026
-43.2686 214.3524 54.8956
-40.9251 218.5660 50.3043
-40.4563 220.7365 57.4614
-39.2809 219.4825 61.5912
-42.5163 211.4877 54.8120
-38.6679 221.0826 54.1565
-43.2189 212.2424 50.5602
-38.4157 221.0797 51.8978
-43.3307 212.3341 60.8853
-40.3471 219.1051 47.2505
-37.3979 221.7385 60.6763
-43.1194 210.5533 50.6383
-39.4726 220.4375 46.0899
-41.1422 210.2006 63.6746
-44.3834 211.5497 47.0867
-34.6742 223.7372 50.1086
-33.8330 222.1489 59.9920
-39.5434 202.4743 53.0688
-43.3122 216.9623 44.1859
-46.0861 211.2044 44.6021
-42.2430 218.1569 42.7207
-46.1385 209.8049 44.0953
-43.6645 217.1485 42.9865
-41.5158 202.1353 45.1526
-33.2178 226.0074 47.5795
-47.2154 213.6980 43.2926
-39.6528 198.5847 51.0230
-27.5511 224.4773 60.0413
-46.8432 215.6065 42.0800
-29.4327 226.2077 55.0200
-41.1664 198.3976 45.8878
-28.7725 227.5747 55.6079
-41.5291 198.7655 41.1166
-47.4807 215.6554 41.3585
-49.1702 214.2197 41.2054
-47.8422 215.5982 40.9975
-46.3354 215.7407 39.1584
-25.2592 226.8102 58.9773
-48.4235 215.1710 40.0081
-31.0432 230.9305 51.8889
-25.1958 228.0984 57.9640
-30.7139 231.9723 50.1075
-24.0508 227.8270 58.5101
-31.1334 232.1473 47.9218
-28.9501 232.5388 54.4547
-24.7247 230.3466 57.0117
-30.1714 232.5675 49.1644
-23.1275 229.5854 57.0862
-28.1569 233.1063 52.0967
-28.1476 233.1076 49.3764
-27.7258 232.7846 47.4715
-26.3910 230.7011 44.2445
-43.4624 280.3764 -29.7063
-41.8746 279.1538 -23.6896
-45.7043 273.7383 -21.4274
-41.4927 283.4220 -26.5355
-39.7077 280.3380 -22.1482
-40.8776 284.4389 -25.8529
-39.3322 279.5971 -21.4583
-44.0841 273.0228 -18.5328
-42.1956 287.0549 -29.2740
-38.5236 277.4574 -20.1508
-43.1569 287.4619 -30.6265
-36.8371 283.6614 -22.1457
-37.1314 277.4796 -19.5997
-46.5441 285.4807 -34.0042
-36.7864 275.9377 -18.2359
-36.6228 279.1308 -19.9703
-45.5537 289.1383 -32.4399
-38.9075 290.3318 -25.1177
-34.6294 276.8219 -17.4822
-36.0324 285.3965 -24.0165
-32.0891 284.1534 -21.1850
-32.5847 280.4239 -19.1271
-46.7143 291.3783 -33.0058
-47.1815 291.4569 -33.7920
-48.2853 296.8184 -30.9164
-47.0516 293.3919 -33.2958
-28.6977 280.3650 -18.7084
-28.8375 277.9268 -16.7694
-28.2662 277.4063 -16.3900
-28.5957 276.5919 -15.2526
-29.7983 274.0170 -12.8191
-26.6521 283.7326 -20.5019
-28.3949 274.5749 -13.8023
-28.9762 271.7019 -12.6063
14.1912 221.9675 32.2782
14.2081 219.5779 31.0169
15.3845 219.6773 28.9755
11.3411 217.2956 34.5019
15.0954 217.3422 28.7438
13.6299 214.6393 30.9280
19.3320 224.3047 28.5337
11.4878 222.6300 37.2420
12.9220 213.5244 32.1856
21.8190 229.1310 37.4957
7.9280 216.0616 37.9944
19.4972 218.6275 23.3966
13.2743 225.1438 39.6936
6.7068 218.0785 39.7977
23.6472 230.4327 39.4178
14.8101 226.7723 41.6265
10.3789 224.9762 42.1470
23.6314 221.6514 20.8268
4.6409 218.4717 41.2739
22.7126 231.3483 44.9373
10.6028 226.4487 44.4832
8.8647 226.4147 45.2827
5.8366 225.4327 44.6446
7.2895 227.0301 46.3853
18.6341 230.7388 48.5308
17.5092 230.9082 50.3796
17.6370 231.1057 53.5502
44.6022 218.8029 -43.3086
47.2616 216.4231 -43.6410
46.6144 220.9957 -36.5021
47.6889 220.7667 -35.4165
46.3170 221.7316 -34.5761
51.2757 217.6290 -35.5626
50.0966 213.5400 -42.8391
41.1357 222.0099 -36.6240
39.7678 221.5858 -38.1790
43.0001 213.3197 -51.2848
46.6569 212.1990 -48.3922
45.2296 211.6717 -50.5331
56.2168 211.3557 -34.0122
53.3360 209.0935 -40.8401
56.8459 209.5723 -33.9957
47.9183 206.6925 -48.6500
38.9285 213.2792 -54.6195
57.3097 209.7204 -32.6783
58.1211 210.8312 -29.0887
51.7916 201.7709 -44.8548
52.8298 202.2004 -43.2242
46.6030 202.2419 -49.8812
40.9463 203.0191 -55.0638
42.5198 201.5949 -53.9839
37.3278 204.5198 -57.4759
34.5769 205.3065 -59.0403
37.1010 199.1200 -58.9738
34.2724 199.6070 -59.5596
38.1302 226.6228 -1.4993
40.5601 227.7981 -6.2230
36.3845 220.3246 -2.3895
43.1121 227.9041 -5.9219
42.6929 227.8884 -7.1961
40.3558 228.8249 3.7499
38.1816 214.9741 -11.8929
42.0737 227.6822 -8.7159
46.3670 227.8777 -0.3661
33.4427 210.7844 -4.4643
47.1885 227.3449 -4.9074
37.2435 227.7192 4.6620
47.3979 226.9620 -6.1236
33.4933 221.5190 6.3852
42.1804 225.9909 -13.6163
47.3484 227.7470 4.2171
46.7442 226.3528 -10.5963
44.3569 228.5807 8.4957
46.3456 226.3235 -12.4263
50.3972 226.0109 0.8547
46.8785 225.9513 -15.0056
51.6846 225.2377 -3.1005
43.6931 225.1382 -18.5189
44.0641 225.4679 -17.6674
44.0446 225.0678 -19.6612
44.2900 225.0944 -20.3666
26.9101 201.0261 -13.6389
31.9199 202.3170 -24.3831
30.8352 201.4093 -25.9196
30.0162 200.9218 -26.4560
21.2831 198.1316 -19.8255
24.6302 199.9156 -27.6847
-30.4152 294.8074 -32.2786
-30.0044 294.3897 -31.9802
-30.5341 292.8589 -33.4215
-28.1613 296.3727 -30.3802
-34.3962 301.5872 -35.9120
-27.8157 295.6357 -29.1305
-28.0440 296.8730 -29.9518
-28.3708 297.0847 -29.8060
-34.5235 303.5344 -33.9743
-32.1295 301.1988 -31.5417
-26.1815 289.7483 -30.3967
-29.6768 296.8147 -26.8207
-30.8965 300.1477 -31.4715
-35.2514 305.9927 -30.4334
-29.7068 299.0340 -29.8218
-32.7812 303.7868 -27.5273
-28.5132 290.9009 -25.2271
-36.9344 306.8794 -33.5260
-26.1967 288.4330 -26.5208
-29.8590 299.6621 -29.9341
-31.8019 297.4128 -24.0893
-34.9259 306.5168 -25.8920
-26.0329 287.7103 -25.5785
-26.1103 287.6438 -24.6728
-41.8692 309.5237 -34.7908
-38.4403 309.2374 -32.2922
-37.6750 309.8197 -29.7278
-44.3805 309.8067 -34.9642
-38.3504 309.8205 -30.3317
-39.0428 310.4270 -30.1670
-40.7860 312.9905 -27.0381
-42.6745 313.4746 -30.2349
-64.4260 217.0428 1.0603
-64.5226 214.6372 -0.2495
-65.5421 219.7523 1.4815
-67.1247 219.6882 0.9873
-65.6463 221.5774 0.1425
-65.6138 222.5962 -0.9116
-64.9293 224.1438 -0.6543
-67.7082 219.1075 -4.3318
-67.0585 222.3221 -3.9154
-66.7204 229.5610 -2.8027
-61.5552 232.3703 1.1906
-68.7810 232.6126 -7.1895
-66.1875 236.5512 -1.1884
-69.2585 236.0159 -7.2574
-66.1668 240.5897 -1.2130
-67.3445 240.5140 -1.5030
-68.2078 240.0627 -1.7560
-69.6734 240.3026 -3.6318
-67.8127 242.7798 -3.2806
-69.1723 240.9992 -3.2509
-65.8614 245.6166 -3.2167
-58.3806 247.9354 -0.8268
-61.7750 248.6473 -2.8398
-55.4326 246.0682 0.9741
-63.9173 248.9023 -4.6907
-63.2507 249.7453 -6.6191
-58.6557 253.4821 -5.8876
-62.0050 250.7733 -7.4948
-60.7998 251.9185 -7.7312
-59.2232 255.4395 -11.2648
-59.6632 254.5299 -12.1508
-58.6280 259.8505 -12.7844
-59.9258 259.5610 -15.3028
-39.1865 291.8838 -47.5737
-38.0057 288.7986 -47.6435
-38.1151 294.2070 -45.0197
-39.6252 293.9086 -46.4131
-34.1870 290.3125 -44.0347
-40.9711 293.8878 -47.0436
-41.7191 292.1541 -46.4879
-40.0165 284.4118 -44.5234
-35.1886 297.5431 -41.0316
-41.2999 294.5348 -46.1801
-41.8981 293.7995 -46.4104
-40.9211 296.2154 -45.1127
-33.2786 297.1370 -39.3619
-40.9746 299.6581 -42.7161
-41.7101 295.7096 -44.4782
-43.7231 292.3927 -40.2779
-42.9446 295.7264 -42.0910
-44.0856 298.4703 -41.1385
-46.2096 294.6914 -37.0374
-42.3469 304.8942 -39.2497
-45.9163 300.2352 -40.5752
-46.2046 302.9658 -42.7412
-45.6303 304.4289 -42.4430
-45.1809 307.7331 -38.0009
-46.9345 305.1348 -42.7877
-48.1538 304.9141 -42.4241
-48.0406 306.1504 -42.1869
-49.6320 198.4375 -4.3267
-53.0577 197.9697 -5.0119
-50.7607 196.3660 0.5765
-42.6570 198.0864 -2.8381
-53.4845 196.1868 1.0587
-51.5873 199.7285 -6.6919
-45.8762 201.6706 -5.3394
-43.7598 200.5655 -4.5541
-56.3453 198.8981 -7.5606
-47.8678 196.0801 7.3209
-56.7196 200.3619 -8.0800
-51.7406 201.8776 -7.1617
-36.2117 196.2458 11.8585
-35.6871 196.3434 7.0135
-32.6520 196.5161 -3.2206
9.2519 213.5220 -40.8814
8.5330 215.0890 -41.3804
13.7904 208.3759 -40.4115
12.7226 207.2215 -39.1355
12.0900 206.7995 -38.3718
17.0941 209.6561 -42.1393
3.7514 209.0376 -34.4864
14.4253 218.0728 -45.1917
15.1754 206.2637 -39.0563
-0.3315 213.6790 -34.1458
21.4803 209.5439 -42.7473
9.8673 218.7954 -45.9757
7.7338 204.4406 -33.1500
19.6402 219.0670 -46.6731
15.1266 219.4006 -46.8106
5.3099 219.0218 -45.6955
23.5788 218.1746 -46.3281
24.5641 217.3126 -45.9150
10.4765 202.4386 -31.1197
6.7789 219.0742 -48.4025
7.7841 218.9528 -49.3858
27.0089 218.2973 -45.2555
-37.4632 217.0042 -10.4213
-36.4823 216.3417 -11.1643
-39.3591 219.3969 -7.8496
-39.3745 220.0168 -8.4624
-39.6917 218.1872 -6.1449
-40.7056 216.8313 -5.0373
-40.3306 220.5515 -6.7732
-41.4394 222.4017 -7.6336
-37.7558 209.6489 -7.6884
-41.4506 210.9859 -5.5642
-42.6865 227.0753 -11.0418
-44.8761 219.8034 -1.6466
-47.8774 207.6566 -4.9830
-43.3379 223.1032 -2.6334
-49.7152 216.0284 -0.4930
-50.7765 214.6831 -0.8887
-48.6053 224.6999 1.1094
-44.3450 226.3081 -3.5712
-54.8371 211.0711 -2.3112
-51.5263 222.4981 1.7123
-44.3754 230.0124 -5.5465
-42.4277 234.4076 -12.5322
-41.4883 235.8132 -8.3105
-45.1915 230.1637 -2.2427
-57.9394 218.1161 1.3205
-44.9847 231.1721 -2.6383
-59.5947 217.5360 1.3707
-61.5622 216.8273 1.2684
-42.3791 238.1432 -3.9085
-37.6648 242.4912 -10.0766
-44.4160 239.6593 -0.5661
-40.0727 241.3086 -5.1942
-39.5533 242.8131 -5.1081
-52.4073 308.2368 -38.4247
-53.2764 309.2886 -37.2509
-49.9393 308.6595 -40.4733
-50.5568 309.9518 -38.1535
-54.1058 307.7289 -34.6977
-49.6632 310.3573 -36.1804
-51.9220 311.4489 -35.1487
-47.6702 308.9904 -37.2907
-54.1873 312.3897 -35.0543
-50.2500 311.7215 -32.9995
-51.0053 312.0839 -32.3779
-56.5735 313.6159 -30.6193
-51.7877 314.4901 -28.7803
-45.5832 314.7850 -28.7635
-49.3652 315.1113 -28.0697
-59.2002 315.6588 -29.4782
-49.3197 316.7922 -25.8217
-50.7497 316.7728 -25.1968
-48.9643 317.4298 -25.0853
-48.7225 317.6827 -24.6473
-58.9649 316.3797 -26.9067
-51.4298 317.6185 -22.8536
-50.7712 318.0409 -22.1274
-51.2560 317.5925 -18.4391
37.7944 208.6020 -30.0682
41.9005 213.2307 -27.2973
42.5355 214.8843 -28.2340
42.5309 214.0293 -26.3219
42.6214 214.7225 -24.8927
33.2500 205.2734 -31.1514
38.7592 213.8287 -35.1439
43.2659 215.9124 -27.7288
34.2170 207.4958 -35.0476
36.0251 208.7928 -35.2328
32.3600 206.0171 -34.6497
40.8476 217.6366 -33.7380
43.5441 218.7126 -28.1128
31.9649 206.4046 -35.6070
41.1653 218.8577 -33.4550
43.8543 218.7361 -26.9758
27.4421 202.6908 -31.8686
33.1300 210.5359 -39.0512
43.5948 221.9777 -25.7501
40.0441 220.6851 -35.7386
42.8152 223.3213 -21.4075
26.7549 205.0164 -37.8374
24.5353 200.6631 -29.3946
37.2417 221.1021 -40.0701
32.5410 214.8253 -42.7524
43.2069 224.2352 -22.9765
34.0614 219.0956 -42.4940
30.0289 213.7581 -43.7574
26.1902 210.4527 -43.0528
33.3428 219.4405 -43.0956
19.6506 203.9750 -36.9049
20.1613 205.0433 -38.6479
17.4633 207.0048 -40.3813
-45.8953 315.1970 -18.7223
-48.9820 316.3403 -17.0411
-49.6659 317.4418 -17.6604
-50.0411 317.2191 -17.3274
-45.5391 313.0633 -18.3816
-43.8129 312.7676 -18.9648
-51.2560 317.5925 -18.4391
-51.2912 317.1924 -17.5950
-45.7295 316.6133 -25.7081
-42.9436 314.5788 -25.3376
-46.0092 308.8757 -18.8635
-44.3805 310.1227 -19.1861
-40.0381 312.1648 -22.9098
-41.5176 310.0861 -20.8020
-43.5655 314.5104 -28.0306
-44.9345 315.6261 -27.3255
-46.5766 306.7743 -18.4528
-47.9536 306.7363 -17.0998
-49.0939 307.9566 -16.1535
-37.9621 310.9235 -24.8536
-43.1117 302.8407 -21.3996
-39.5848 305.0416 -21.5446
-43.8909 302.0330 -21.3621
-38.1141 304.2627 -22.0753
-35.8765 307.9207 -26.2629
-39.9794 300.0003 -22.5973
-34.8129 301.4589 -22.9225
-39.2449 298.0804 -22.9110
-34.2327 298.8102 -22.8878
-34.6829 295.2825 -22.2538
-32.4292 295.1706 -23.0587
-33.8777 292.4834 -22.7851
-30.3323 291.3410 -24.0813
-59.5823 217.2889 -27.5792
-62.2326 217.1752 -24.8710
-61.9551 221.4383 -23.4899
-65.0931 214.2766 -22.5188
-62.2327 223.6402 -22.6098
-59.4259 226.7008 -22.5915
-54.5494 226.0026 -24.1166
-69.0126 212.9523 -18.3533
-68.4036 214.6062 -19.1703
-69.6221 215.8941 -18.3866
-52.7234 228.7628 -22.2835
-55.3131 230.6722 -21.9930
-67.4163 228.2207 -18.1380
-55.8026 233.0131 -21.9632
-64.4295 234.3342 -21.6519
-61.7066 236.7595 -22.5781
-64.5042 237.1607 -22.8315
-61.0874 241.0761 -23.4571
-70.6688 236.2669 -19.1409
-58.1975 242.8457 -23.3451
-57.7689 244.0987 -22.9358
-62.4500 244.0265 -23.1612
-61.7021 244.4330 -23.1344
-57.6032 245.6625 -22.2507
-66.0255 242.6224 -21.6593
-67.7935 241.6536 -19.0809
-66.8361 243.0909 -20.0810
-64.8213 245.5351 -21.4260
-66.0975 244.4992 -19.2607
-64.6704 245.4452 -18.1491
17.9915 197.9542 -14.9089
16.8172 198.1420 -6.7474
21.0189 199.0919 -6.5757
11.8172 197.9111 -0.2942
8.2090 197.8776 7.3337
27.8637 204.4444 -5.4699
21.0625 198.4654 2.6337
24.0719 200.8140 -0.5227
23.8975 201.8471 1.9872
23.4474 204.6294 2.0882
-42.3675 217.9740 40.8093
-43.4302 217.3523 40.6325
-39.5005 219.6488 36.9456
-37.7474 221.9944 39.1894
-42.1163 216.3898 36.7025
-41.4136 216.0391 35.8480
-37.8219 221.8144 35.1723
-38.4766 221.3751 34.7035
-43.5499 215.0810 36.4166
-34.1097 225.3467 39.4942
-39.5929 216.7741 32.9157
-44.3508 214.3890 36.0377
-39.1877 216.4626 32.1008
-39.0542 215.0619 32.4399
-33.8672 222.9174 34.1024
-32.0868 227.0716 41.8002
-38.3502 223.1793 31.9002
-46.4190 214.1847 35.1349
-39.0635 219.7416 28.7895
-41.0273 211.7695 33.1236
-31.5906 227.6252 42.2750
-30.6108 226.3464 39.3000
-31.3067 228.4437 43.0337
-30.6784 227.9934 41.9237
-32.0724 228.5244 44.3829
-37.9259 223.5643 30.4414
-39.1402 223.2261 30.6143
-36.1224 212.5412 31.6382
-33.5537 215.0352 31.1540
-44.8109 208.9698 35.3958
-47.1695 210.6595 35.0990
-48.6621 209.7592 37.2063
-39.7877 204.4668 34.6739
-43.2490 204.9843 40.1800
-41.6130 201.2222 42.1748
-40.6016 222.5252 -21.6006
-42.0884 223.7603 -20.3088
-41.7634 224.0519 -18.7325
-43.2763 224.9098 -19.6923
-43.1812 223.4350 -22.6151
-41.0860 221.2017 -25.5079
-36.0250 218.6044 -15.2113
-45.6620 225.3669 -22.0354
-45.8488 223.2044 -24.8049
-38.2302 218.9836 -29.2006
-32.1163 218.4929 -27.0549
-42.7549 227.5952 -14.7027
-47.8729 229.2216 -20.1952
-47.8778 222.1036 -27.2634
-41.8268 225.4454 -11.8254
-48.8842 229.3433 -20.7398
-48.7233 221.0581 -29.6027
-42.6587 227.8227 -12.3024
-47.4182 231.3854 -18.5494
-51.8482 227.7429 -22.8336
-51.3924 230.4268 -21.1011
-42.9447 232.9046 -12.0198
-54.1593 223.1536 -26.8070
-57.1621 222.1176 -26.4475
-26.2950 281.2885 -35.4702
-25.0928 278.0824 -33.7387
-27.4141 275.9998 -36.6688
-28.4318 275.4126 -37.4979
-26.0951 274.1482 -34.1512
-25.4025 278.8784 -30.0413
-24.9573 282.2737 -31.2115
-25.0932 283.1138 -32.1823
-26.2627 284.3698 -33.5838
-27.0112 285.0339 -33.8356
-30.0331 286.9670 -40.1612
-25.0712 282.7791 -27.4966
-25.4827 285.0647 -32.6399
-28.2294 287.9309 -34.7413
-34.6461 289.6999 -44.6315
-30.1254 289.4998 -39.9297
-24.9666 286.4519 -31.6810
-29.2472 289.5859 -34.4712
-25.5195 288.2684 -31.0268
-26.2168 288.9121 -31.1409
-25.2361 288.0962 -30.4496
-31.6570 294.6901 -37.8878
-32.9698 296.3444 -39.8593
-29.0016 292.6017 -31.7402
-23.9774 278.8420 -21.8989
-24.1417 275.6205 -23.9141
-24.1289 280.4110 -22.3274
-24.2276 275.7083 -20.4513
-23.8608 275.9930 -21.1877
-23.8140 272.1447 -23.3372
-23.7364 272.7820 -20.7586
-23.5296 271.8619 -21.3276
-24.2903 271.2357 -26.3526
-25.4307 270.2295 -28.9721
-23.8908 270.3065 -26.3528
-24.5970 269.4382 -27.8117
-25.3704 267.5050 -18.6035
-25.0730 266.2848 -19.4366
-24.3718 266.3068 -21.3966
-28.1224 263.2647 -13.2381
-24.2263 262.8293 -23.6599
-25.6319 260.0502 -20.6110
-25.0532 259.3409 -22.2414
-41.9154 273.0657 -39.0724
-39.3887 276.2213 -39.8515
-41.9681 270.8229 -39.7576
-43.9840 269.9344 -36.5004
-42.1440 280.2096 -37.7183
-42.4734 268.3683 -38.6389
-44.3194 267.5364 -34.9070
-36.7030 282.1263 -44.8870
-42.1787 264.4664 -36.5750
-38.7174 266.7013 -40.0122
-44.4082 261.5790 -32.2167
-45.2552 260.6939 -31.7612
-44.2898 258.1269 -32.9048
-56.2830 305.9843 -29.6704
-55.4546 302.0024 -29.6297
-54.5481 305.1738 -32.6006
-59.2246 312.8544 -29.1265
-53.4209 299.5747 -30.0645
-62.8394 315.4739 -25.1292
-62.5356 312.4632 -21.2962
-62.3692 317.0077 -24.8057
-61.4278 314.4040 -22.2097
-61.0615 312.1397 -20.8561
-60.2228 315.1574 -22.1815
-60.8489 317.1648 -25.4752
-59.7666 311.5012 -20.4356
-58.0169 312.4978 -19.8592
-56.6561 315.8863 -21.1040
-56.0114 315.6808 -19.4339
-53.6384 316.6654 -18.9936
-28.7059 259.2160 -12.2222
-27.4650 259.5913 -16.4698
-29.3838 259.5012 -11.4426
-27.2552 257.6475 -18.1806
-28.7773 263.6746 -11.5253
-26.7192 256.6190 -21.2910
-36.5850 257.4795 -5.9274
-36.6563 260.8578 -7.3946
-28.8363 266.6125 -10.6293
-29.2688 266.1226 -9.8994
-39.0300 254.7176 -4.0381
-33.3640 265.1610 -9.2234
-29.2595 268.1589 -10.6518
-40.3522 254.2236 -3.1110
-36.9503 265.5085 -8.4266
-41.9965 263.9160 -7.6492
-30.9096 267.4993 -9.8400
-41.3636 252.7072 -2.2120
-42.4753 253.3194 -1.7790
-44.5698 257.8912 -2.5164
-69.0890 226.2731 -13.0110
-68.4395 229.1051 -15.6485
-68.7733 229.6401 -11.3483
-70.7085 223.0074 -13.4552
-70.8315 222.2951 -12.5608
-69.2210 232.2282 -14.0441
-71.5695 221.1858 -12.9607
-69.3777 221.2275 -9.1818
-71.0848 219.9126 -11.7841
-67.0585 222.3221 -3.9154
-71.2995 217.4631 -12.8998
-66.8473 215.6779 -6.9872
-65.5223 212.0954 -9.5518
-66.7739 209.6097 -12.8011
-64.5226 214.6372 -0.2495
-64.3992 210.6557 -2.3979
29.8218 221.7394 12.4587
32.2333 220.9695 8.4382
25.6228 220.8024 17.5169
31.8382 227.2959 14.8854
30.8790 226.7964 16.1312
25.0320 212.8225 10.7387
34.3939 228.3142 11.0215
31.1541 215.2245 5.2830
28.8838 213.3201 6.9035
35.9701 229.2068 15.2047
26.5617 207.5435 2.9968
32.2686 207.3799 -7.3206
-27.3837 271.8110 -34.7387
-26.8232 273.3324 -35.1323
-32.0584 264.7266 -34.5412
-32.9812 262.3293 -33.9897
-38.4783 262.4602 -36.6006
-39.9467 259.1454 -33.9774
-42.1129 258.5922 -33.1808
-47.4305 256.2054 -33.2843
-47.3136 258.2357 -31.4138
-44.3218 231.2571 -15.4869
-46.5821 233.4637 -18.1070
-43.1858 237.8764 -17.3765
-40.8352 241.7722 -18.7991
-32.6019 248.0754 -16.3814
-36.5778 253.6870 -28.5037
-31.7278 249.5317 -13.9553
-29.7658 251.7816 -18.5810
-28.5945 253.3951 -19.8149
-36.3526 276.4007 -41.5659
-37.4282 274.2414 -41.8124
-36.9047 273.5249 -42.1957
-31.8885 275.1666 -40.1090
-36.2109 272.3606 -42.3981
-31.2453 273.7505 -39.2326
-35.9681 272.0312 -42.3197
-37.2641 271.0697 -42.5368
-41.2132 272.6579 -40.9745
-36.7864 269.3598 -41.0783
-41.9681 270.8229 -39.7576
-33.6459 288.2398 -43.5686
-47.1905 292.2770 -34.1305
-47.0516 293.3919 -33.2958
-47.4919 288.7263 -34.2210
-47.9040 296.3368 -35.2830
-46.7505 289.0143 -37.3250
-48.5167 297.8975 -35.7511
-43.9681 290.3485 -40.1433
-46.4133 284.2564 -34.3243
-43.4171 285.3762 -40.1291
-53.8546 304.2030 -33.6598
46.6553 223.2459 -29.0629
46.5313 223.9280 -26.7534
51.6607 221.4557 -29.0837
44.7350 223.1749 -29.3136
52.6403 220.0676 -30.0372
44.6676 224.4779 -23.9716
50.2864 219.7292 -33.6061
43.6841 222.8006 -32.4828
52.9765 218.3309 -32.0385
54.2756 217.5498 -31.1199
42.5072 221.9342 -32.4502
-52.6964 251.7318 -30.8353
-52.0614 253.6823 -31.6128
-50.6566 255.2098 -32.0585
-49.4504 254.9561 -33.1238
-47.9195 244.4170 -25.2152
-43.4726 243.7870 -22.9425
-54.0479 237.4915 -22.3417
-33.9960 251.0972 -9.3376
-31.0776 251.6994 -14.5315
-29.9769 254.6760 -14.6174
-40.8500 250.9858 -2.1867
-42.4753 253.3194 -1.7790
-44.2671 253.4345 -1.2317
33.5318 220.7842 -43.9825
32.1229 219.1782 -43.8338
37.7886 221.2968 -42.4609
30.2365 220.0033 -44.8480
30.1753 220.4727 -47.5419
31.7890 220.3062 -48.6173
40.4432 220.6345 -43.6119
26.4912 219.6699 -46.1831
24.8870 219.7089 -50.0757
23.9727 219.2577 -46.8010
28.7946 227.4581 20.5469
25.7134 225.7326 22.1003
24.3888 223.6323 21.5621
24.9840 226.8258 24.9507
21.6033 224.6228 24.7642
-28.8167 220.0748 31.9917
-31.1798 219.4677 31.5744
-27.8638 217.8188 31.1887
-34.1617 221.8775 30.6211
-34.4908 222.3497 30.0669
-36.9978 223.5016 30.5919
-38.0020 220.0633 28.3785
-38.5363 221.4506 27.0455
-46.5302 207.9448 40.6051
-47.9250 208.7279 38.5071
-47.3189 209.8022 35.8876
-57.6784 210.8593 -1.4080
-55.8274 206.5926 -4.8002
-59.6185 207.4513 -3.7917
-59.0628 204.2637 -7.3344
-63.6931 209.0784 -3.8909
-60.3492 203.8529 -8.9139
-62.1278 310.9257 -20.8127
-57.3764 308.5340 -20.6324
-53.8698 302.9327 -25.8032
-48.1501 298.8211 -26.8793
-51.2262 298.7983 -29.8481
-59.8277 197.5779 -8.9603
-31.0298 254.8323 -26.4868
-27.2609 259.3606 -28.0843
-32.9812 262.3293 -33.9897
-51.9134 299.3399 -32.7816
-53.7953 299.8355 -30.7983
-30.8207 299.0588 -32.0374
-29.5036 297.3848 -31.1835
-28.1848 297.0823 -30.1443
-38.4783 262.4602 -36.6006
-35.7198 245.3916 -8.7000
-33.2198 247.5789 -11.4618
-69.5931 213.7927 -12.3610
-69.8726 211.3822 -13.1860
-69.6608 209.0640 -15.4065
-50.6619 235.4601 3.9453
-50.6348 237.7113 3.1439
-49.7012 212.0237 41.1835
-45.1648 283.2158 -34.5645
-39.7005 209.4274 65.4150
-64.4542 212.4051 -1.2074
-55.3016 304.3708 -25.0162
-58.2286 306.6852 -24.1651
-51.7289 249.9613 -29.6617
-70.1941 234.7258 -18.2304
-24.5970 269.4382 -27.8117
-39.0635 219.7416 28.7895
-49.6616 210.4220 37.7018
-54.7914 300.6509 -28.7480
-135.3635 192.2600 -65.6416
-135.3635 192.4557 -78.2556
-135.3635 192.4765 -88.6689
-135.3635 192.5385 -85.9382
-135.3635 192.7702 -95.2132
-135.3635 192.6542 -101.9712
-135.3635 192.5387 -106.7254
-135.3635 192.7022 -111.9918
-135.3635 192.5487 -121.5829
-135.3635 192.5901 -126.0730
-135.3635 193.7730 39.0931
-135.3635 193.8943 21.9193
-135.3635 193.7811 41.2436
-135.3635 194.0249 51.5941
-135.3635 193.9068 43.1582
-135.3635 193.9647 53.8638
-135.3635 194.2413 60.5597
-135.3635 194.2745 68.9474
-135.3635 194.4334 66.4228
-135.3635 194.3268 73.5699
-135.3635 194.5707 79.0819
-135.3635 194.5209 89.9280
-135.3635 194.8207 99.3110
-135.3635 194.8559 107.9246
-135.3635 195.0450 115.9581
-135.3635 193.2520 -29.8504
-135.3635 192.8924 -34.4662
-135.3635 193.2783 -20.9881
-135.3635 192.8425 -39.9468
-135.3635 193.3964 -12.3433
-135.3635 193.5846 -5.6124
-135.3635 193.6484 1.8539
-135.3635 193.5702 6.9860
-135.3635 194.8559 125.0287
-135.3635 192.6164 -60.9622
-135.3635 192.4764 -57.5464
-135.3635 192.7187 -48.5829
135.3635 201.5715 -110.9973
135.3635 201.5651 -113.5522
135.3635 201.4541 -121.2529
135.3635 201.0385 -128.4961
135.3635 201.0225 -128.8042
135.3635 201.7126 -87.6468
135.3635 201.7790 -81.5705
135.3635 202.0756 -72.6805
135.3635 202.1969 -64.3227
135.3635 202.1014 -56.7510
135.3635 202.3792 -48.2221
135.3635 202.5219 -42.9527
135.3635 202.5124 -32.4751
135.3635 202.7874 -23.5635
135.3635 203.1888 -12.6742
135.3635 203.2403 -0.7782
135.3635 203.4691 7.0567
135.3635 203.8097 12.9790
135.3635 203.8856 18.9750
135.3635 204.4902 89.8670
135.3635 204.4498 83.4856
135.3635 204.5031 103.2922
135.3635 204.4498 83.4856
135.3635 204.5031 103.2922
135.3635 204.6409 110.4508
135.3635 204.9523 118.9289
135.3635 203.9420 53.3372
135.3635 204.8506 127.2919
135.3635 204.2615 62.9426
135.3635 204.1681 47.4876
135.3635 204.1705 45.8978
135.3635 203.7858 36.8666
135.3635 203.7191 32.0357
135.3635 203.9497 26.6849
-134.1657 192.4443 -131.5785
-128.7750 191.9822 -131.5785
-122.4932 192.1571 -131.5785
-113.7271 192.5453 -131.5785
-108.4445 193.0210 -131.5785
-112.3499 192.6278 -131.5785
-111.7956 192.6762 -131.5785
-93.3180 193.2048 -131.5785
-84.5224 193.2630 -131.5785
-78.0474 193.5062 -131.5785
-69.6530 193.8255 -131.5785
-63.6781 194.2439 -131.5785
-58.3204 194.0526 -131.5785
-51.8183 194.4637 -131.5785
-44.4458 194.6962 -131.5785
-37.1519 194.7736 -131.5785
-33.9436 195.0096 -131.5785
-23.3546 195.2740 -131.5785
-23.3546 195.2740 -131.5785
-16.2944 195.3944 -131.5785
-5.1734 196.1912 -131.5785
135.2553 201.0515 -131.5785
119.6388 200.5200 -131.5785
112.5463 200.1977 -131.5785
106.4210 199.9367 -131.5785
97.9232 199.8431 -131.5785
89.7173 199.4631 -131.5785
82.1353 199.0886 -131.5785
70.9048 198.6639 -131.5785
60.6746 198.1196 -131.5785
53.6930 198.1052 -131.5785
40.4705 197.5724 -131.5785
35.8764 197.4819 -131.5785
25.6599 197.2800 -131.5785
18.6834 196.9468 -131.5785
13.1551 196.7344 -131.5785
-0.2183 196.0687 -131.5785
-27.4208 198.7797 131.5785
-48.5210 197.9440 131.5785
-31.5558 198.7699 131.5785
-46.0957 198.0598 131.5785
-31.5558 198.7699 131.5785
-10.0518 199.4048 131.5785
-43.6922 198.2171 131.5785
0.4129 199.6400 131.5785
-58.3673 197.7496 131.5785
-0.1688 199.6368 131.5785
19.5535 200.5537 131.5785
-115.6033 195.7950 131.5785
-105.7920 195.8998 131.5785
130.4304 204.6610 131.5785
127.3814 204.6263 131.5785
122.7555 204.5364 131.5785
114.7224 204.0139 131.5785
107.1040 203.7253 131.5785
103.6076 203.6457 131.5785
90.3977 203.1848 131.5785
83.7385 202.9218 131.5785
68.9800 202.2281 131.5785
57.2795 201.6866 131.5785
49.2348 201.2898 131.5785
41.4517 201.0513 131.5785
30.8970 200.8220 131.5785
-132.0101 195.3684 131.5785
-105.7210 195.9013 131.5785
-93.0430 196.4105 131.5785
-86.9687 196.8103 131.5785
-81.9545 196.7134 131.5785
-63.0186 197.6101 131.5785
-71.7696 197.3332 131.5785
